<?xml version="1.0" encoding="iso-8859-1"?>
<!-- Generator: Adobe Illustrator 18.0.0, SVG Export Plug-In . SVG Version: 6.00 Build 0)  -->
<!DOCTYPE svg PUBLIC "-//W3C//DTD SVG 1.1//EN" "http://www.w3.org/Graphics/SVG/1.1/DTD/svg11.dtd">
<svg version="1.1" id="Capa_1" xmlns="http://www.w3.org/2000/svg" xmlns:xlink="http://www.w3.org/1999/xlink" x="0px" y="0px"
	 viewBox="0 0 486.323 486.323" style="enable-background:new 0 0 486.323 486.323;" xml:space="preserve">
<g>
	<path d="M378.082,273.315l-59.07-17.61c-3.816,4.771-7.819,9.133-11.932,13.145l11.682,3.488L249.73,377.59
		c-3.661,5.584-12.856,5.592-16.516-0.007l-68.47-104.401l14.515-4.324c-4.129-4.02-8.118-8.382-11.949-13.161l-59.07,17.618
		c-13.23,3.941-22.286,16.093-22.286,29.887v25.915c0,86.822,70.377,157.207,157.208,157.207
		c86.83,0,157.207-70.385,157.207-157.207v-25.915C400.369,289.408,391.314,277.256,378.082,273.315z"/>
	<path d="M344.58,128.023c1.135-7.377,1.428-16.674,1.504-23.566c5.057,2.729,14.639,3.144,14.639,3.144
		c-5.929-7.038-27.738-74.98-35.939-80.754c15.325-3.323,26.431-11.831,26.431-11.831c-15.254,0.847-41.72-5.535-49.482-7.513
		C292.613,2.818,282.408,0,271.547,0h-54.691c-22.943,0-43.664,11.53-55.206,29.84c-9.651,15.311-27.448,46.05-40.147,60.243
		c0,0,6.49-0.797,14.811-3.315c2.753-0.837,5.693-1.853,8.68-3.097c-3.055,18.116-3.5,37.685-3.232,44.345
		c-7.922,3.237-13.888,10.609-16.488,20.425c-2.455,9.331-1.814,20.208,1.814,30.616c5.725,16.436,17.906,28.517,31.168,31.224
		c0.078,0.18,0.204,0.367,0.282,0.548v5.121l0.157-0.078c0.125,5.037,1.438,10.627,5.021,16.476c0,0,21.534,32.976,49.466,55.832
		l-0.029-0.413c4.316,4.346,10.071,7.186,16.529,7.186h28.965c6.459,0,12.215-2.84,16.53-7.186l-0.03,0.413
		c27.932-22.856,49.467-55.832,49.467-55.832c3.582-5.849,4.895-11.439,5.02-16.476l0.157,0.078v-6.255
		c12.386-3.269,23.96-14.804,29.479-30.638C367.053,156.617,360.598,134.531,344.58,128.023z M278.1,241.347
		c-4.363,3.417-10.243,4.231-15.389,2.135c-5.13-2.094-8.76-6.787-9.494-12.299c-0.188-1.314-1.297-2.292-2.626-2.292h-12.857
		c-1.33,0-2.439,0.977-2.627,2.292c-0.734,5.504-4.363,10.197-9.51,12.292c-5.129,2.104-11.01,1.283-15.389-2.135l-2.517-1.978
		l6.145-17.305c3.379-9.492,12.355-15.834,22.442-15.834h15.891c10.071,0,19.049,6.342,22.428,15.834l6.129,17.235L278.1,241.347z
		 M344.146,173.794c-3.284,9.421-8.915,15.616-14.358,18.704v-20.588c0-2.487-2.018-4.505-4.505-4.505h-5.739
		c-1.954,0-3.675,1.252-4.284,3.105l-7.195,22.012l-3.299,10.275c-4.364,9.165-6.616,17.978-13.17,26.281
		c0.236-1.806,0.439-3.635,0.439-5.504c0-25.337-21.426-45.887-47.873-45.887c-26.414,0-47.841,20.55-47.841,45.887
		c0,1.883,0.203,3.729,0.438,5.551c-6.584-8.32-8.819-17.141-13.2-26.328l-3.299-10.275l-7.195-22.012
		c-0.608-1.853-2.33-3.105-4.283-3.105h-5.74c-2.486,0-4.505,2.018-4.505,4.505v21.722c-5.942-2.485-12.621-9.18-16.327-19.837
		c-2.549-7.336-3.081-15.084-1.454-21.263c0.798-2.979,2.8-8.219,7.46-9.836c0.5-0.173,1.486-0.274,1.97-0.322
		c3.957-0.383,7.038-3.611,7.226-7.584c0.173-3.698,0.607-7.268,1.502-10.769c12.042-47.082,52.986-50.475,52.986-50.475
		c-7.383,17.352-19.315,24.687-19.315,24.687c39.363-16.015,51.625-33.367,51.625-33.367c26.196,36.37,62.293,52.149,83.139,58.617
		c0.61,3.738,1.377,7.419,1.565,11.307c0.188,3.973,3.268,7.202,7.227,7.584c0.483,0.048,1.47,0.149,1.985,0.322
		C345.209,145.166,349.43,158.553,344.146,173.794z"/>
</g>
<g>
</g>
<g>
</g>
<g>
</g>
<g>
</g>
<g>
</g>
<g>
</g>
<g>
</g>
<g>
</g>
<g>
</g>
<g>
</g>
<g>
</g>
<g>
</g>
<g>
</g>
<g>
</g>
<g>
</g>
</svg>
