<svg height="512pt" viewBox="-29 0 511 512" width="512pt" xmlns="http://www.w3.org/2000/svg"><path d="m366.167969 0h-138.914063l-20.019531 235.667969 20.019531 276.332031c136.425782-51.363281 226.75-181.882812 226.75-327.65625v-96.507812c-43.253906-10.550782-77.285156-44.582032-87.835937-87.835938zm0 0" fill="#ff4a4a"/><path d="m88.335938 0c-10.550782 43.253906-44.582032 77.285156-87.835938 87.835938v96.507812c0 145.773438 90.324219 276.292969 226.753906 327.65625v-512zm0 0" fill="#ff9f22"/><path d="m352.660156 101.34375c-11.261718-11.265625-20.949218-23.867188-28.878906-37.476562h-96.527344l-20.019531 147.800781 20.019531 230.988281c44.996094-21.433594 83.398438-54.074219 112.015625-95.421875 33.277344-48.085937 50.867188-104.414063 50.867188-162.890625v-54.121094c-13.609375-7.925781-26.210938-17.617187-37.476563-28.878906zm0 0" fill="#b4d2d7"/><path d="m130.722656 63.867188c-7.925781 13.609374-17.617187 26.214843-28.878906 37.476562s-23.867188 20.953125-37.476562 28.878906v54.121094c0 58.476562 17.589843 114.804688 50.867187 162.890625 28.617187 41.347656 67.019531 73.988281 112.019531 95.421875v-378.789062zm0 0" fill="#e1ebf0"/><path d="m212.253906 251.875h30v71.546875h-30zm0 0" fill="#03232e"/><path d="m227.253906 167.667969-20.019531 49.601562 20.019531 49.605469c27.347656 0 49.601563-22.253906 49.601563-49.605469 0-27.347656-22.253907-49.601562-49.601563-49.601562zm0 0" fill="#03232e"/><path d="m177.648438 217.269531c0 27.351563 22.253906 49.601563 49.605468 49.601563v-99.207032c-27.351562.003907-49.605468 22.253907-49.605468 49.605469zm0 0" fill="#07485e"/></svg>