<svg id="Layer_35" enable-background="new 0 0 64 64" height="512" viewBox="0 0 64 64" width="512" xmlns="http://www.w3.org/2000/svg"><path d="m55 62h-26c0-2.21 1.79-4 4-4h1 16 1c2.21 0 4 1.79 4 4z" fill="#aab2bd"/><path d="m34 54h16v4h-16z" fill="#aab2bd"/><path d="m23.01 50h38.99c0 2.21-1.79 4-4 4h-8-16-8c-1.15 0-2.19-.49-2.92-1.27h-.07z" fill="#fcd770"/><path d="m58 26h-35l.01 24h38.99v-8-12c0-2.21-1.79-4-4-4z" fill="#69d6f4"/><path d="m41 42v4h-14v-6.76c.62-.54 1.01-1.35 1.01-2.24v-7h12.99z" fill="#b4dd7f"/><path d="m15.01 56v3c0 1.66-1.34 3-3 3-.83 0-1.57-.34-2.12-.88-.54-.54-.88-1.29-.88-2.12l-.01-3h4z" fill="#f0d0b4"/><path d="m21 56 .01 3c0 .83-.33 1.58-.88 2.12-.54.54-1.29.88-2.12.88-1.65 0-3-1.34-3-3v-3z" fill="#f0d0b4"/><path d="m28.01 30v7c0 .89-.39 1.7-1.01 2.24-.53.47-1.22.76-1.99.76h-2-.01l.01 10v2.73 3.27h-2.01-5.99-2.01v-26l2-1.78 7-6.22-3-1 2.64-3.17c2.99 1.77 5.2 4.7 6.01 8.17.24.97.36 1.98.36 3.01z" fill="#838f9b"/><path d="m7 40h-2c-1.66 0-3-1.34-3-3v-7.99c0-4.72 2.51-8.86 6.28-11.14l.07-.05 2.65 3.18-3 1 7 6.22-2 1.78v26h-4-1.99z" fill="#838f9b"/><path d="m19 21 3 1-7 6.22-7-6.22 3-1-2.65-3.18-2.35-2.82 3-2 .19-.12c.72 1.09 1.74 1.95 2.93 2.49l2.88 8.63 2.87-8.61c1.2-.54 2.22-1.4 2.96-2.49l.17.1 3 2-2.36 2.83z" fill="#aab2bd"/><path d="m17.87 15.39-2.87 8.61-2.88-8.63c.88.41 1.86.63 2.89.63 1.02 0 1.99-.22 2.86-.61z" fill="#f0d0b4"/><path d="m17.87 15.39c-.87.39-1.84.61-2.86.61-1.03 0-2.01-.22-2.89-.63-1.19-.54-2.21-1.4-2.93-2.49-.75-1.11-1.18-2.44-1.18-3.88 0-.34.02-.68.08-1h13.84c.06.32.08.66.08 1 0 1.45-.44 2.79-1.18 3.9-.74 1.09-1.76 1.95-2.96 2.49z" fill="#f0d0b4"/><path d="m21.93 8h-13.84c.48-3.4 3.4-6 6.92-6 3.53 0 6.44 2.6 6.92 6z" fill="#969faa"/><path d="m42 10c-3.31 0-6 2.69-6 6s2.69 6 6 6c-3.84 0-7.53-1.53-10.24-4.24l-.05-.05c-.46-.46-.71-1.07-.71-1.71s.25-1.25.71-1.71l.05-.05c2.71-2.71 6.4-4.24 10.24-4.24z" fill="#e6e9ed"/><path d="m52.29 14.29c.46.46.71 1.07.71 1.71s-.25 1.25-.71 1.71l-.05.05c-2.71 2.71-6.4 4.24-10.24 4.24 3.31 0 6-2.69 6-6s-2.69-6-6-6c1.92 0 3.8.38 5.54 1.1s3.34 1.78 4.7 3.14z" fill="#e6e9ed"/><path d="m42 10c3.31 0 6 2.69 6 6s-2.69 6-6 6-6-2.69-6-6 2.69-6 6-6z" fill="#69d6f4"/><circle cx="42" cy="16" fill="#4fc1e9" r="2"/><path d="m42 23c4.137 0 8.025-1.611 11-4.585.645-.645 1-1.502 1-2.415s-.355-1.77-1.051-2.464c-2.924-2.925-6.812-4.536-10.949-4.536s-8.025 1.611-11 4.585c-.645.645-1 1.502-1 2.415s.355 1.77 1.051 2.464c2.924 2.925 6.812 4.536 10.949 4.536zm-5-7c0-2.757 2.243-5 5-5s5 2.243 5 5-2.243 5-5 5-5-2.243-5-5zm15 0c0 .378-.146.733-.465 1.05-1.048 1.048-2.244 1.89-3.533 2.533.629-1.049.998-2.273.998-3.583 0-1.307-.367-2.528-.993-3.576 1.299.65 2.509 1.505 3.579 2.576.268.267.414.622.414 1zm-19.535-1.05c1.048-1.048 2.244-1.891 3.533-2.533-.629 1.049-.998 2.272-.998 3.583 0 1.307.367 2.527.993 3.576-1.298-.65-2.508-1.505-3.579-2.576-.268-.267-.414-.622-.414-1s.146-.733.465-1.05z"/><path d="m42 13c-1.654 0-3 1.346-3 3s1.346 3 3 3 3-1.346 3-3-1.346-3-3-3zm0 4c-.552 0-1-.449-1-1s.448-1 1-1 1 .449 1 1-.448 1-1 1z"/><path d="m45 5h2v2h-2z"/><path d="m41 5h2v2h-2z"/><path d="m37 5h2v2h-2z"/><path d="m57.998 25h-29.583c-.889-2.956-2.738-5.575-5.284-7.395l2.349-2.819-3.32-2.213c.54-1.077.852-2.287.852-3.572h1.988v-2.001h-2.251c-.892-3.445-4.017-6-7.737-6s-6.844 2.555-7.736 6h-2.276v2h2.013c0 1.279.31 2.486.846 3.559l-3.339 2.226 2.351 2.822c-3.694 2.628-5.871 6.814-5.871 11.399v7.994c0 2.206 1.794 4 4 4h1.006l.007 16h1.99l.01 2c0 2.206 1.794 4 4 4 1.201 0 2.266-.542 3-1.382.734.84 1.799 1.382 3 1.382 2.206 0 4-1.794 4-4.005l-.011-1.995h2.01l-.001-2.415c.623.27 1.301.415 1.99.415h6.999v2c-2.757 0-5 2.243-5 5v1h28v-1c0-2.757-2.243-5-5-5v-2h6.998c2.758 0 5.002-2.244 5.002-5.002v-19.996c0-2.758-2.244-5.002-5.002-5.002zm0 2c1.655 0 3.002 1.347 3.002 3.002v18.998h-36.991l-.003-8h1.007c.343 0 .67-.057.987-.138v6.138h16v-18h-12.987c0-.674-.054-1.342-.15-2zm-17.998 4v14h-12v-5.367c.622-.705 1.013-1.621 1.013-2.633v-6zm-17.48-15.785-5.226 6.271 2.749.917-4.911 4.365 3.556-10.669c.901-.469 1.7-1.103 2.361-1.864zm-7.52 5.623-1.32-3.958c.434.073.877.12 1.332.12.445 0 .88-.046 1.306-.116zm.013-17.838c2.607 0 4.824 1.673 5.65 4h-11.3c.826-2.327 3.043-4 5.65-4zm6 6c0 3.309-2.691 6-6 6s-6-2.691-6-6zm-12.046 5.224c.655.757 1.447 1.391 2.34 1.86l3.561 10.684-4.911-4.366 2.749-.917-5.226-6.27zm-3.967 24.776c-1.103 0-2-.897-2-2v-7.994c0-3.981 1.93-7.594 5.169-9.841l1.125 1.35-3.251 1.083 7.452 6.624-1.495 1.329v25.449h-3.987l-.013-29h-2l.005 13zm7.013 22c-1.103 0-2-.897-2-2.005l-.011-1.995h4.01v2c.001 1.103-.897 2-1.999 2zm8-2c0 1.103-.897 2-2 2s-2-.897-2-2v-2h3.99zm-6.013-4v-24.551l9.957-8.851-3.251-1.083 1.128-1.354c3.206 2.232 5.178 5.912 5.178 9.846v7.993c0 1.103-.897 2-2 2h-1.007l-.005-13h-2l.013 29zm39.829 6h-23.658c.413-1.164 1.525-2 2.829-2h18c1.304 0 2.416.836 2.829 2zm-4.829-4h-14v-2h14zm8.998-4h-31.996c-.749 0-1.442-.282-1.991-.776v-1.224h36.805c-.416 1.162-1.516 2-2.818 2z"/><path d="m44 29h15v2h-15z"/><path d="m48 33h11v2h-11z"/><path d="m44 33h2v2h-2z"/><path d="m44 37h15v2h-15z"/><path d="m57 41h2v2h-2z"/><path d="m44 41h11v2h-11z"/></svg>